<?xml version="1.0" encoding="UTF-8"?><svg id="a" xmlns="http://www.w3.org/2000/svg" viewBox="0 0 1000 1000"><defs><style>.b,.c{stroke-width:0px;}.c{fill:#fff;}</style></defs><circle class="b" cx="500" cy="500" r="473.66"/><path class="c" d="m444.29,567.27c-1.59.51-1.79.63-2.01.64q-21.53,1.04-34.4-16.16c-6.8-9.06-13.58-18.13-20.67-26.95-1.48-1.85-4.21-3.66-6.44-3.77-9.25-.42-18.53-.18-28.82-.18v46.36h-20.69v-134.6c1.34-.21,2.82-.65,4.3-.65,19.48-.09,38.96-.33,58.44-.13,26.8.28,44.23,15.37,47.09,40.32,2.46,21.44-8.63,37.46-32.57,46.67,11.81,16,23.57,31.93,35.77,48.45Zm-92.3-65.4c15.29,0,29.74.45,44.16-.13,14.59-.58,23.9-10.84,23.94-25.07.03-14.06-9.44-24.23-24.11-24.91-11.5-.53-23.04-.15-34.57-.17-3.06,0-6.12,0-9.42,0v50.27Z"/><path class="c" d="m212.9,570.17c-39.92-.11-69.75-29.92-69.67-69.64.07-40.08,30.29-70.73,69.69-70.69,39.65.04,69.84,30.59,69.75,70.59-.09,39.59-30.36,69.85-69.77,69.74Zm48.27-69.61c.21-28.83-19.98-50.41-47.3-50.58-28.4-.18-48.95,20.92-49.05,50.35-.09,28.55,20.34,50.03,47.83,50.29,27.95.26,48.31-20.75,48.52-50.06Z"/><path class="c" d="m856.77,567.79c-6.89,0-12.78.33-18.59-.19-1.94-.17-4.43-2.12-5.37-3.93-3.02-5.81-5.82-11.8-7.96-17.98-1.64-4.75-4.33-5.94-9.04-5.76-9.27.35-18.58-.15-27.85.2-4.19.16-6.7-1.07-8.53-4.82-2.16-4.4-4.81-8.55-7.88-13.92h42.49c-9.72-22.18-18.91-43.12-28.72-65.5-3.86,8.56-7.26,15.77-10.38,23.09-11.1,26.01-22.09,52.07-33.14,78.1q-4.59,10.83-16.21,10.75c-3.14-.02-6.28,0-10.65,0,4.91-11.57,9.31-22.32,14-32.94,14.26-32.28,28.72-64.48,42.86-96.82,2-4.58,4.6-5.68,9.48-6.47,11.91-1.92,16.65,3.52,21.07,13.83,16.48,38.47,34.06,76.48,51.22,114.66.92,2.04,1.73,4.13,3.21,7.7Z"/><path class="c" d="m472.24,432.17c6.94,0,13.25-.48,19.42.27,2.05.25,4.49,3.35,5.44,5.68,13.13,32.27,26.03,64.63,38.99,96.96.92,2.29,1.88,4.55,3.33,8.06,1.82-4.24,3.27-7.46,4.59-10.73,12.15-30.22,24.45-60.38,36.3-90.71,2.72-6.97,6.04-11.12,14.19-9.65,3.45.62,7.1.1,11.57.1-3.61,9.06-6.75,17.25-10.11,25.34-14.58,35.09-29.31,70.12-43.75,105.27-1.71,4.16-3.56,5.85-8.3,5.74-15.73-.36-15.63-.17-21.79-15.09-15.7-38.04-31.51-76.05-47.26-114.07-.85-2.05-1.52-4.18-2.61-7.19Z"/><path class="c" d="m649.07,432.46h19.9v134.82h-19.9v-134.82Z"/></svg>