<?xml version="1.0" encoding="UTF-8"?><svg id="Layer_1" xmlns="http://www.w3.org/2000/svg" viewBox="0 0 793.14 191.05"><defs><style>.cls-1{fill:#fff;stroke-width:0px;}</style></defs><path class="cls-1" d="m336.83,171.39c-1.68.54-1.89.66-2.12.68q-22.73,1.09-36.31-17.06c-7.18-9.56-14.34-19.13-21.82-28.45-1.56-1.95-4.44-3.87-6.8-3.98-9.76-.44-19.56-.19-30.42-.19v48.94h-21.84V29.24c1.41-.22,2.98-.68,4.54-.69,20.56-.1,41.13-.35,61.69-.13,28.29.3,46.69,16.22,49.71,42.56,2.59,22.63-9.11,39.54-34.38,49.26,12.47,16.89,24.89,33.7,37.76,51.14Zm-97.44-69.04c16.14,0,31.4.47,46.61-.13,15.4-.61,25.23-11.44,25.27-26.46.04-14.85-9.96-25.58-25.45-26.3-12.14-.56-24.32-.16-36.49-.18-3.23,0-6.46,0-9.94,0v53.06Z"/><path class="cls-1" d="m92.57,174.45c-42.14-.12-73.63-31.59-73.55-73.52.08-42.3,31.98-74.66,73.56-74.62,41.86.04,73.73,32.29,73.63,74.52-.09,41.79-32.05,73.73-73.65,73.62Zm50.95-73.48c.22-30.43-21.09-53.21-49.94-53.39-29.98-.19-51.68,22.08-51.78,53.15-.1,30.14,21.47,52.81,50.49,53.08,29.5.28,51-21.9,51.22-52.84Z"/><path class="cls-1" d="m772.25,171.94c-7.27,0-13.49.35-19.62-.2-2.04-.18-4.68-2.24-5.67-4.15-3.19-6.13-6.15-12.45-8.4-18.98-1.73-5.01-4.57-6.27-9.54-6.08-9.79.37-19.61-.16-29.4.21-4.42.17-7.07-1.13-9.01-5.09-2.28-4.64-5.08-9.02-8.32-14.69h44.85c-10.26-23.41-19.96-45.51-30.32-69.15-4.08,9.04-7.67,16.64-10.96,24.37-11.71,27.46-23.32,54.96-34.98,82.44q-4.85,11.43-17.11,11.34c-3.31-.02-6.63,0-11.24,0,5.18-12.22,9.82-23.57,14.78-34.78,15.05-34.08,30.32-68.07,45.25-102.2,2.11-4.83,4.86-6,10-6.83,12.57-2.02,17.58,3.71,22.24,14.6,17.4,40.61,35.96,80.73,54.07,121.04.97,2.16,1.83,4.36,3.39,8.12Z"/><path class="cls-1" d="m366.34,28.77c7.33,0,13.99-.51,20.5.29,2.17.26,4.74,3.53,5.74,6,13.86,34.06,27.47,68.22,41.15,102.36.97,2.41,1.98,4.81,3.51,8.51,1.92-4.47,3.45-7.87,4.84-11.33,12.83-31.9,25.81-63.73,38.32-95.76,2.87-7.35,6.37-11.74,14.97-10.18,3.64.66,7.5.11,12.21.11-3.81,9.56-7.12,18.21-10.67,26.75-15.39,37.04-30.94,74.02-46.18,111.13-1.8,4.39-3.76,6.18-8.76,6.06-16.6-.38-16.5-.18-23-15.93-16.58-40.16-33.27-80.27-49.89-120.42-.9-2.17-1.61-4.41-2.75-7.59Z"/><path class="cls-1" d="m552.99,29.08h21.01v142.32h-21.01V29.08Z"/></svg>