<?xml version="1.0" encoding="UTF-8"?><svg id="a" xmlns="http://www.w3.org/2000/svg" viewBox="0 0 692.35 134.34"><defs><style>.b{fill:#27e7ec;}.b,.c{stroke-width:0px;}.c{fill:#5aa5cc;}</style></defs><path class="c" d="m140.39,36.35l-19.22-3.33-39.22,45.96-7.28-20.89-20.19-3.83,21.7,59.1,12.52-14.99,51.69-62.03Z"/><path class="b" d="m148.22,30.42l-55.59-9.6,45.49-7.89,10.1,17.49Z"/><path class="c" d="m103.68,30.03l-13.44,15.58-41.86-7.96-6.74-18.32,62.04,10.69Z"/><path class="b" d="m113.3,80.1l-15.72,42.83h-20l35.72-42.83Z"/><path class="b" d="m51.78,67.75l-29.16-34.94,9.97-17.27,19.19,52.21Z"/><path class="c" d="m175.34,34.9h13.06l20.25,51.67,20.16-51.67h12.77l-27.94,67.71h-10.37l-27.94-67.71Z"/><path class="c" d="m250.02,32.6h12.49v11.05h-12.49v-11.05Zm.49,18.82h11.62v50.7h-11.62v-50.7Z"/><path class="c" d="m277.3,51.42h11.62v11.43c3.16-7.59,9.02-12.78,17.95-12.38v12.29h-.66c-10.17,0-17.28,6.63-17.28,20.08v19.3h-11.62v-50.72Z"/><path class="c" d="m319.36,88.1v-26.71h-6.43v-9.99h6.43v-13.93h11.62v13.93h13.64v9.99h-13.64v24.88c0,4.51,2.3,6.34,6.23,6.34,2.59,0,4.9-.58,7.2-1.73v9.51c-2.87,1.64-6.15,2.59-10.46,2.59-8.55,0-14.59-3.74-14.59-14.88h-.02Z"/><path class="c" d="m355.74,83.68v-32.26h11.62v28.81c0,7.87,3.94,12.38,10.85,12.38s11.43-4.71,11.43-12.58v-28.61h11.62v50.7h-11.62v-7.87c-3.27,4.8-7.96,8.93-15.85,8.93-11.43,0-18.06-7.67-18.06-19.5Z"/><path class="b" d="m417.19,34.9h26.5c15.65,0,25.53,8.93,25.53,22.47v.2c0,15.08-12.09,22.95-26.88,22.95h-13.35v21.6h-11.8V34.9Zm25.55,34.96c8.93,0,14.5-5,14.5-12.01v-.2c0-7.87-5.66-12.01-14.5-12.01h-13.73v24.21h13.73Z"/><path class="b" d="m479.98,51.42h11.62v11.43c3.16-7.59,9.02-12.78,17.95-12.38v12.29h-.66c-10.17,0-17.28,6.63-17.28,20.08v19.3h-11.62v-50.72Z"/><path class="b" d="m515.13,77.06v-.2c0-14.5,11.52-26.51,27.08-26.51s26.99,11.81,26.99,26.31v.2c0,14.41-11.52,26.4-27.17,26.4s-26.88-11.81-26.88-26.22l-.02.02Zm42.44,0v-.2c0-8.93-6.43-16.32-15.56-16.32s-15.27,7.3-15.27,16.14v.2c0,8.84,6.43,16.32,15.45,16.32s15.36-7.39,15.36-16.14h.02Z"/><path class="b" d="m576.86,95.51l5.19-7.87c5.48,4.13,11.43,6.24,16.6,6.24s7.87-2.12,7.87-5.48v-.2c0-3.94-5.37-5.28-11.34-7.1-7.49-2.12-15.85-5.19-15.85-14.88v-.2c0-9.6,7.98-15.46,18.06-15.46,6.34,0,13.24,2.21,18.63,5.77l-4.62,8.27c-4.89-2.98-10.08-4.8-14.3-4.8-4.51,0-7.1,2.12-7.1,5.09v.2c0,3.65,5.48,5.19,11.43,7.1,7.38,2.3,15.74,5.66,15.74,14.79v.2c0,10.66-8.26,15.94-18.81,15.94-7.2,0-15.16-2.59-21.51-7.59v-.02Z"/><path class="b" d="m626.22,76.96v-.2c0-14.5,10.28-26.4,24.78-26.4,16.13,0,24.29,12.67,24.29,27.28,0,1.06-.09,2.12-.2,3.27h-37.24c1.24,8.27,7.1,12.87,14.59,12.87,5.66,0,9.7-2.12,13.73-6.06l6.81,6.06c-4.8,5.77-11.43,9.51-20.73,9.51-14.7,0-26.02-10.66-26.02-26.31v-.02Zm37.55-3.74c-.77-7.5-5.19-13.35-12.87-13.35-7.11,0-12.09,5.48-13.15,13.35h26.02Z"/></svg>